<svg id="Layer_2" data-name="Layer 2" xmlns="http://www.w3.org/2000/svg" viewBox="0 0 450.27 161.36"><defs><style>.cls-1{fill:#fff;}.cls-2{fill:#28c861;}</style></defs><title>Artboard 4 copy 2</title><path class="cls-1" d="M171.93,56.63q0,21.75-10.71,30.7Q147.32,99,108.31,99h-40q0-12,12.47-21.74T108,67.5q11.67,0,16.15-1.59,7.35-2.56,7.35-10.55,0-7.68-7-10.24-4.48-1.59-16.15-1.59h-40V11.39h40q38.52,0,52.91,13.27Q171.93,34.58,171.93,56.63Z"/><path class="cls-2" d="M104.6,151.06H8.37V11.39h40V118.93H104.6Z"/><path class="cls-1" d="M166.07,150.82H124.54V119h41.53Z"/><path class="cls-1" d="M225.31,60.48H248V71.87H212.05V11.39h13.26Z"/><path class="cls-1" d="M255.37,11.39h37.29V22.6h-24V36.23h23.09V46.72H268.68V60.66H293.6V71.87H255.37Z"/><path class="cls-1" d="M348.62,11.39l-15.9,60.48H312.85l-16-60.48h14.25l11.66,48.1,11.57-48.1Z"/><path class="cls-1" d="M355.5,11.39h37.29V22.6h-24V36.23H391.9V46.72H368.81V60.66h24.92V71.87H355.5Z"/><path class="cls-1" d="M415.21,60.48H437.9V71.87H402V11.39h13.26Z"/><path class="cls-1" d="M227.47,101.69H211.8v-11h44.61v11H240.78v49.44H227.47Z"/><path class="cls-1" d="M336.63,90.66l-13.49,60.47H305.9l-8.22-38.85-8.17,38.85H272.27L258.78,90.66h14.11l9.38,46.81,9-45.92h12.78l9.15,45.92,9.25-46.81Z"/><path class="cls-1" d="M342.29,110.13c0-13.35,9.47-20.36,23.18-20.36s23.27,7,23.27,20.36v21.53c0,13.4-9.51,20.37-23.27,20.37s-23.18-7-23.18-20.37ZM355.6,132c0,5.94,3.53,9.65,9.87,9.65s9.92-3.71,9.92-9.65V109.82c0-5.94-3.57-9.6-9.92-9.6s-9.87,3.66-9.87,9.6Z"/></svg>